<svg width="682" height="297" viewBox="0 0 682 297" fill="none" xmlns="http://www.w3.org/2000/svg">
<circle cx="338.5" cy="148.5" r="148.5" transform="rotate(-90 338.5 148.5)" fill="#FF6F29" fill-opacity="0.05"/>
<circle cx="338.5" cy="148.5" r="148" transform="rotate(-90 338.5 148.5)" stroke="#FF6F29" stroke-opacity="0.2"/>
<circle cx="338.5" cy="148.5" r="114.5" transform="rotate(-90 338.5 148.5)" fill="#FF6F29" fill-opacity="0.05"/>
<circle cx="338.5" cy="148.5" r="114" transform="rotate(-90 338.5 148.5)" stroke="#FF6F29" stroke-opacity="0.2"/>
<circle cx="338.5" cy="148.5" r="79.5" transform="rotate(-90 338.5 148.5)" fill="#FF6F29" fill-opacity="0.1"/>
<circle cx="338.5" cy="148.5" r="79" transform="rotate(-90 338.5 148.5)" stroke="#FF6F29" stroke-opacity="0.2"/>
<path d="M338.5 99C365.838 99 388 121.162 388 148.5C388 175.838 365.838 198 338.5 198C311.162 198 289 175.838 289 148.5C289 121.162 311.162 99 338.5 99Z" fill="#FF6F29"/>
<path d="M536.655 250.818V261H535.119V250.818H536.655ZM547.737 255.909C547.737 256.996 547.538 257.931 547.14 258.713C546.742 259.492 546.197 260.092 545.504 260.513C544.815 260.93 544.031 261.139 543.153 261.139C542.271 261.139 541.484 260.93 540.791 260.513C540.102 260.092 539.558 259.49 539.161 258.708C538.763 257.926 538.564 256.993 538.564 255.909C538.564 254.822 538.763 253.889 539.161 253.11C539.558 252.328 540.102 251.728 540.791 251.31C541.484 250.889 542.271 250.679 543.153 250.679C544.031 250.679 544.815 250.889 545.504 251.31C546.197 251.728 546.742 252.328 547.14 253.11C547.538 253.889 547.737 254.822 547.737 255.909ZM546.215 255.909C546.215 255.08 546.081 254.383 545.812 253.816C545.547 253.246 545.183 252.815 544.719 252.523C544.258 252.228 543.736 252.081 543.153 252.081C542.566 252.081 542.042 252.228 541.582 252.523C541.121 252.815 540.756 253.246 540.488 253.816C540.223 254.383 540.09 255.08 540.09 255.909C540.09 256.738 540.223 257.437 540.488 258.007C540.756 258.574 541.121 259.005 541.582 259.3C542.042 259.591 542.566 259.737 543.153 259.737C543.736 259.737 544.258 259.591 544.719 259.3C545.183 259.005 545.547 258.574 545.812 258.007C546.081 257.437 546.215 256.738 546.215 255.909ZM548.712 252.141V250.818H556.592V252.141H553.415V261H551.884V252.141H548.712Z" fill="white"/>
<path d="M402 256L526 256" stroke="url(#paint0_linear_2664_7073)"/>
<path d="M457 219L593 219" stroke="url(#paint1_linear_2664_7073)"/>
<path d="M602.119 224V213.818H605.748C606.54 213.818 607.196 213.962 607.717 214.251C608.237 214.539 608.626 214.933 608.885 215.434C609.143 215.931 609.273 216.491 609.273 217.114C609.273 217.741 609.142 218.304 608.88 218.805C608.621 219.302 608.23 219.696 607.707 219.988C607.186 220.276 606.532 220.42 605.743 220.42H603.247V219.118H605.604C606.104 219.118 606.51 219.032 606.822 218.859C607.133 218.684 607.362 218.445 607.508 218.143C607.654 217.842 607.727 217.499 607.727 217.114C607.727 216.73 607.654 216.388 607.508 216.09C607.362 215.792 607.132 215.558 606.817 215.389C606.505 215.22 606.094 215.136 605.584 215.136H603.655V224H602.119ZM611.074 224V213.818H617.457V215.141H612.61V218.243H617.124V219.56H612.61V222.678H617.517V224H611.074ZM619.509 224V213.818H623.138C623.927 213.818 624.582 213.954 625.102 214.226C625.626 214.498 626.017 214.874 626.276 215.354C626.534 215.832 626.663 216.384 626.663 217.01C626.663 217.633 626.532 218.182 626.271 218.656C626.012 219.126 625.621 219.492 625.097 219.754C624.577 220.016 623.922 220.147 623.134 220.147H620.384V218.825H622.994C623.491 218.825 623.896 218.753 624.207 218.611C624.522 218.468 624.753 218.261 624.898 217.989C625.044 217.718 625.117 217.391 625.117 217.01C625.117 216.625 625.043 216.292 624.893 216.011C624.748 215.729 624.517 215.513 624.202 215.364C623.891 215.212 623.482 215.136 622.974 215.136H621.045V224H619.509ZM624.536 219.406L627.051 224H625.301L622.835 219.406H624.536ZM630.069 213.818V224H628.533V213.818H630.069ZM628.692 212.799L629.855 210.507H631.421L629.88 212.799H628.692ZM632.306 213.818H634.17L637.412 221.733H637.531L640.773 213.818H642.637V224H641.175V216.632H641.081L638.078 223.985H636.865L633.862 216.627H633.768V224H632.306V213.818ZM644.871 224V213.818H651.254V215.141H646.407V218.243H650.921V219.56H646.407V222.678H651.314V224H644.871ZM652.804 215.141V213.818H660.684V215.141H657.507V224H655.976V215.141H652.804ZM662.425 224V213.818H666.055C666.843 213.818 667.498 213.954 668.018 214.226C668.542 214.498 668.933 214.874 669.192 215.354C669.45 215.832 669.579 216.384 669.579 217.01C669.579 217.633 669.448 218.182 669.187 218.656C668.928 219.126 668.537 219.492 668.013 219.754C667.493 220.016 666.838 220.147 666.05 220.147H663.3V218.825H665.91C666.407 218.825 666.812 218.753 667.123 218.611C667.438 218.468 667.669 218.261 667.814 217.989C667.96 217.718 668.033 217.391 668.033 217.01C668.033 216.625 667.959 216.292 667.809 216.011C667.664 215.729 667.433 215.513 667.118 215.364C666.807 215.212 666.398 215.136 665.89 215.136H663.961V224H662.425ZM667.452 219.406L669.967 224H668.217L665.751 219.406H667.452ZM680.293 218.909C680.293 219.996 680.094 220.931 679.697 221.713C679.299 222.492 678.754 223.092 678.061 223.513C677.372 223.93 676.588 224.139 675.709 224.139C674.828 224.139 674.041 223.93 673.348 223.513C672.658 223.092 672.115 222.49 671.717 221.708C671.319 220.926 671.121 219.993 671.121 218.909C671.121 217.822 671.319 216.889 671.717 216.11C672.115 215.328 672.658 214.728 673.348 214.31C674.041 213.889 674.828 213.679 675.709 213.679C676.588 213.679 677.372 213.889 678.061 214.31C678.754 214.728 679.299 215.328 679.697 216.11C680.094 216.889 680.293 217.822 680.293 218.909ZM678.772 218.909C678.772 218.08 678.638 217.383 678.369 216.816C678.104 216.246 677.739 215.815 677.275 215.523C676.815 215.228 676.293 215.081 675.709 215.081C675.123 215.081 674.599 215.228 674.138 215.523C673.678 215.815 673.313 216.246 673.045 216.816C672.779 217.383 672.647 218.08 672.647 218.909C672.647 219.738 672.779 220.437 673.045 221.007C673.313 221.574 673.678 222.005 674.138 222.3C674.599 222.591 675.123 222.737 675.709 222.737C676.293 222.737 676.815 222.591 677.275 222.3C677.739 222.005 678.104 221.574 678.369 221.007C678.638 220.437 678.772 219.738 678.772 218.909Z" fill="white"/>
<path d="M402 182L526 182" stroke="url(#paint2_linear_2664_7073)"/>
<path d="M535.979 187H534.348L538.012 176.818H539.787L543.451 187H541.82L538.942 178.668H538.862L535.979 187ZM536.252 183.013H541.542V184.305H536.252V183.013ZM544.921 187V176.818H548.551C549.343 176.818 549.999 176.962 550.519 177.251C551.04 177.539 551.429 177.933 551.688 178.434C551.946 178.931 552.075 179.491 552.075 180.114C552.075 180.741 551.945 181.304 551.683 181.805C551.424 182.302 551.033 182.696 550.509 182.988C549.989 183.276 549.334 183.42 548.546 183.42H546.05V182.118H548.406C548.907 182.118 549.313 182.032 549.624 181.859C549.936 181.684 550.165 181.445 550.311 181.143C550.456 180.842 550.529 180.499 550.529 180.114C550.529 179.73 550.456 179.388 550.311 179.09C550.165 178.792 549.934 178.558 549.619 178.389C549.308 178.22 548.897 178.136 548.387 178.136H546.458V187H544.921ZM555.413 176.818V187H553.876V176.818H555.413Z" fill="white"/>
<path d="M469 145L593 145" stroke="url(#paint3_linear_2664_7073)"/>
<path d="M607.672 142.493C607.619 142.022 607.4 141.658 607.016 141.399C606.631 141.137 606.147 141.006 605.564 141.006C605.146 141.006 604.785 141.073 604.48 141.205C604.175 141.335 603.938 141.513 603.769 141.742C603.603 141.968 603.521 142.224 603.521 142.513C603.521 142.755 603.577 142.964 603.69 143.139C603.806 143.315 603.956 143.462 604.142 143.582C604.331 143.698 604.533 143.795 604.749 143.875C604.964 143.951 605.171 144.014 605.37 144.064L606.364 144.322C606.689 144.402 607.022 144.51 607.364 144.646C607.705 144.781 608.022 144.96 608.313 145.183C608.605 145.405 608.84 145.68 609.019 146.008C609.201 146.336 609.293 146.729 609.293 147.186C609.293 147.763 609.143 148.275 608.845 148.722C608.55 149.17 608.121 149.523 607.558 149.781C606.997 150.04 606.32 150.169 605.524 150.169C604.762 150.169 604.102 150.048 603.545 149.806C602.989 149.564 602.553 149.221 602.238 148.777C601.923 148.33 601.749 147.799 601.716 147.186H603.257C603.287 147.554 603.406 147.861 603.615 148.106C603.827 148.348 604.097 148.528 604.425 148.648C604.757 148.764 605.12 148.822 605.514 148.822C605.948 148.822 606.335 148.754 606.673 148.618C607.014 148.479 607.282 148.286 607.478 148.041C607.674 147.793 607.771 147.503 607.771 147.171C607.771 146.87 607.685 146.623 607.513 146.43C607.344 146.238 607.113 146.079 606.822 145.953C606.533 145.827 606.207 145.716 605.842 145.62L604.639 145.292C603.824 145.07 603.178 144.743 602.7 144.312C602.226 143.882 601.989 143.312 601.989 142.602C601.989 142.016 602.148 141.504 602.467 141.066C602.785 140.629 603.216 140.289 603.759 140.047C604.303 139.802 604.916 139.679 605.599 139.679C606.288 139.679 606.896 139.8 607.423 140.042C607.954 140.284 608.371 140.617 608.676 141.041C608.981 141.462 609.14 141.946 609.153 142.493H607.672ZM611.128 150V139.818H617.512V141.141H612.665V144.243H617.179V145.56H612.665V148.678H617.572V150H611.128ZM619.564 150V139.818H623.193C623.982 139.818 624.637 139.954 625.157 140.226C625.681 140.498 626.072 140.874 626.33 141.354C626.589 141.832 626.718 142.384 626.718 143.01C626.718 143.633 626.587 144.182 626.325 144.656C626.067 145.126 625.676 145.492 625.152 145.754C624.632 146.016 623.977 146.147 623.188 146.147H620.439V144.825H623.049C623.546 144.825 623.951 144.753 624.262 144.611C624.577 144.468 624.807 144.261 624.953 143.989C625.099 143.718 625.172 143.391 625.172 143.01C625.172 142.625 625.097 142.292 624.948 142.011C624.802 141.729 624.572 141.513 624.257 141.364C623.946 141.212 623.536 141.136 623.029 141.136H621.1V150H619.564ZM624.59 145.406L627.106 150H625.356L622.89 145.406H624.59ZM629.231 139.818L632.065 148.111H632.179L635.013 139.818H636.674L633.01 150H631.235L627.571 139.818H629.231ZM639.68 139.818V150H638.144V139.818H639.68ZM645.214 150H641.917V139.818H645.318C646.316 139.818 647.172 140.022 647.888 140.43C648.604 140.834 649.153 141.416 649.534 142.175C649.918 142.93 650.111 143.837 650.111 144.894C650.111 145.955 649.917 146.866 649.529 147.629C649.144 148.391 648.588 148.978 647.858 149.388C647.129 149.796 646.248 150 645.214 150ZM643.454 148.658H645.129C645.905 148.658 646.549 148.512 647.063 148.22C647.577 147.925 647.961 147.499 648.216 146.942C648.472 146.382 648.599 145.7 648.599 144.894C648.599 144.095 648.472 143.418 648.216 142.861C647.965 142.304 647.588 141.881 647.088 141.593C646.587 141.305 645.966 141.161 645.224 141.161H643.454V148.658ZM660.865 144.909C660.865 145.996 660.667 146.931 660.269 147.713C659.871 148.492 659.326 149.092 658.633 149.513C657.944 149.93 657.16 150.139 656.282 150.139C655.4 150.139 654.613 149.93 653.92 149.513C653.231 149.092 652.687 148.49 652.289 147.708C651.892 146.926 651.693 145.993 651.693 144.909C651.693 143.822 651.892 142.889 652.289 142.11C652.687 141.328 653.231 140.728 653.92 140.31C654.613 139.889 655.4 139.679 656.282 139.679C657.16 139.679 657.944 139.889 658.633 140.31C659.326 140.728 659.871 141.328 660.269 142.11C660.667 142.889 660.865 143.822 660.865 144.909ZM659.344 144.909C659.344 144.08 659.21 143.383 658.941 142.816C658.676 142.246 658.312 141.815 657.848 141.523C657.387 141.228 656.865 141.081 656.282 141.081C655.695 141.081 655.171 141.228 654.711 141.523C654.25 141.815 653.885 142.246 653.617 142.816C653.352 143.383 653.219 144.08 653.219 144.909C653.219 145.738 653.352 146.437 653.617 147.007C653.885 147.574 654.25 148.005 654.711 148.3C655.171 148.591 655.695 148.737 656.282 148.737C656.865 148.737 657.387 148.591 657.848 148.3C658.312 148.005 658.676 147.574 658.941 147.007C659.21 146.437 659.344 145.738 659.344 144.909ZM662.781 150V139.818H666.41C667.199 139.818 667.853 139.954 668.374 140.226C668.897 140.498 669.289 140.874 669.547 141.354C669.806 141.832 669.935 142.384 669.935 143.01C669.935 143.633 669.804 144.182 669.542 144.656C669.284 145.126 668.892 145.492 668.369 145.754C667.848 146.016 667.194 146.147 666.405 146.147H663.656V144.825H666.266C666.763 144.825 667.167 144.753 667.479 144.611C667.794 144.468 668.024 144.261 668.17 143.989C668.316 143.718 668.389 143.391 668.389 143.01C668.389 142.625 668.314 142.292 668.165 142.011C668.019 141.729 667.789 141.513 667.474 141.364C667.162 141.212 666.753 141.136 666.246 141.136H664.317V150H662.781ZM667.807 145.406L670.323 150H668.573L666.107 145.406H667.807Z" fill="white"/>
<path d="M424 108L548 108" stroke="url(#paint4_linear_2664_7073)"/>
<path d="M565.575 106.129H564.024C563.964 105.798 563.853 105.506 563.691 105.254C563.529 105.002 563.33 104.789 563.094 104.613C562.859 104.437 562.596 104.305 562.304 104.215C562.016 104.126 561.709 104.081 561.384 104.081C560.798 104.081 560.272 104.228 559.808 104.523C559.348 104.818 558.983 105.251 558.714 105.821C558.449 106.391 558.317 107.087 558.317 107.909C558.317 108.738 558.449 109.437 558.714 110.007C558.983 110.577 559.349 111.008 559.813 111.3C560.277 111.591 560.799 111.737 561.379 111.737C561.701 111.737 562.006 111.694 562.294 111.608C562.586 111.518 562.849 111.388 563.085 111.215C563.32 111.043 563.519 110.832 563.681 110.584C563.847 110.332 563.961 110.044 564.024 109.719L565.575 109.724C565.492 110.224 565.332 110.685 565.093 111.106C564.858 111.523 564.554 111.885 564.183 112.19C563.815 112.491 563.394 112.725 562.92 112.891C562.446 113.056 561.929 113.139 561.369 113.139C560.488 113.139 559.702 112.93 559.013 112.513C558.323 112.092 557.78 111.49 557.382 110.708C556.988 109.926 556.79 108.993 556.79 107.909C556.79 106.822 556.989 105.889 557.387 105.11C557.785 104.328 558.328 103.728 559.018 103.31C559.707 102.889 560.491 102.679 561.369 102.679C561.91 102.679 562.413 102.757 562.881 102.913C563.351 103.065 563.774 103.29 564.148 103.589C564.523 103.884 564.833 104.245 565.078 104.673C565.323 105.097 565.489 105.582 565.575 106.129ZM567.414 113V102.818H568.95V111.678H573.563V113H567.414ZM583.764 107.909C583.764 108.996 583.565 109.931 583.167 110.713C582.77 111.492 582.224 112.092 581.532 112.513C580.842 112.93 580.058 113.139 579.18 113.139C578.298 113.139 577.511 112.93 576.819 112.513C576.129 112.092 575.586 111.49 575.188 110.708C574.79 109.926 574.591 108.993 574.591 107.909C574.591 106.822 574.79 105.889 575.188 105.11C575.586 104.328 576.129 103.728 576.819 103.31C577.511 102.889 578.298 102.679 579.18 102.679C580.058 102.679 580.842 102.889 581.532 103.31C582.224 103.728 582.77 104.328 583.167 105.11C583.565 105.889 583.764 106.822 583.764 107.909ZM582.243 107.909C582.243 107.08 582.108 106.383 581.84 105.816C581.575 105.246 581.21 104.815 580.746 104.523C580.285 104.228 579.763 104.081 579.18 104.081C578.593 104.081 578.07 104.228 577.609 104.523C577.148 104.815 576.784 105.246 576.515 105.816C576.25 106.383 576.118 107.08 576.118 107.909C576.118 108.738 576.25 109.437 576.515 110.007C576.784 110.574 577.148 111.005 577.609 111.3C578.07 111.591 578.593 111.737 579.18 111.737C579.763 111.737 580.285 111.591 580.746 111.3C581.21 111.005 581.575 110.574 581.84 110.007C582.108 109.437 582.243 108.738 582.243 107.909ZM592.227 102.818H593.768V109.515C593.768 110.228 593.601 110.859 593.266 111.409C592.931 111.956 592.46 112.387 591.854 112.702C591.247 113.013 590.536 113.169 589.721 113.169C588.909 113.169 588.2 113.013 587.593 112.702C586.987 112.387 586.516 111.956 586.181 111.409C585.847 110.859 585.679 110.228 585.679 109.515V102.818H587.215V109.391C587.215 109.851 587.316 110.261 587.519 110.619C587.724 110.977 588.014 111.258 588.389 111.464C588.763 111.666 589.207 111.767 589.721 111.767C590.238 111.767 590.684 111.666 591.058 111.464C591.436 111.258 591.725 110.977 591.923 110.619C592.126 110.261 592.227 109.851 592.227 109.391V102.818ZM599.298 113H596.001V102.818H599.402C600.4 102.818 601.256 103.022 601.972 103.43C602.688 103.834 603.237 104.416 603.618 105.175C604.002 105.93 604.195 106.837 604.195 107.894C604.195 108.955 604.001 109.866 603.613 110.629C603.228 111.391 602.672 111.978 601.942 112.388C601.213 112.796 600.332 113 599.298 113ZM597.538 111.658H599.213C599.989 111.658 600.633 111.512 601.147 111.22C601.661 110.925 602.045 110.499 602.3 109.942C602.556 109.382 602.683 108.7 602.683 107.894C602.683 107.095 602.556 106.418 602.3 105.861C602.049 105.304 601.672 104.881 601.172 104.593C600.671 104.305 600.05 104.161 599.308 104.161H597.538V111.658Z" fill="white"/>
<path d="M9.64169 247.129H8.09055C8.0309 246.798 7.91986 246.506 7.75746 246.254C7.59505 246.002 7.39619 245.789 7.16087 245.613C6.92554 245.437 6.66205 245.305 6.37038 245.215C6.08203 245.126 5.77545 245.081 5.45064 245.081C4.86399 245.081 4.33866 245.228 3.87465 245.523C3.41394 245.818 3.04936 246.251 2.78089 246.821C2.51574 247.391 2.38317 248.087 2.38317 248.909C2.38317 249.738 2.51574 250.437 2.78089 251.007C3.04936 251.577 3.4156 252.008 3.87962 252.3C4.34363 252.591 4.86565 252.737 5.44567 252.737C5.76716 252.737 6.07209 252.694 6.36044 252.608C6.65211 252.518 6.9156 252.388 7.15092 252.215C7.38625 252.043 7.58511 251.832 7.74751 251.584C7.91323 251.332 8.02758 251.044 8.09055 250.719L9.64169 250.724C9.55883 251.224 9.39808 251.685 9.15945 252.106C8.92412 252.523 8.62086 252.885 8.24965 253.19C7.88175 253.491 7.46082 253.725 6.98686 253.891C6.5129 254.056 5.99586 254.139 5.43572 254.139C4.5541 254.139 3.76858 253.93 3.07919 253.513C2.3898 253.092 1.84624 252.49 1.44851 251.708C1.0541 250.926 0.856889 249.993 0.856889 248.909C0.856889 247.822 1.05575 246.889 1.45348 246.11C1.85121 245.328 2.39477 244.728 3.08416 244.31C3.77356 243.889 4.55741 243.679 5.43572 243.679C5.97597 243.679 6.47976 243.757 6.94709 243.913C7.41773 244.065 7.84032 244.29 8.21484 244.589C8.58937 244.884 8.89927 245.245 9.14453 245.673C9.3898 246.097 9.55552 246.582 9.64169 247.129ZM11.4799 254V243.818H17.8635V245.141H13.0162V248.243H17.5304V249.56H13.0162V252.678H17.9231V254H11.4799ZM19.9155 254V243.818H23.5447C24.3336 243.818 24.9882 243.954 25.5085 244.226C26.0322 244.498 26.4233 244.874 26.6818 245.354C26.9403 245.832 27.0696 246.384 27.0696 247.01C27.0696 247.633 26.9387 248.182 26.6768 248.656C26.4183 249.126 26.0272 249.492 25.5036 249.754C24.9832 250.016 24.3286 250.147 23.5398 250.147H20.7905V248.825H23.4006C23.8977 248.825 24.3021 248.753 24.6136 248.611C24.9285 248.468 25.1589 248.261 25.3047 247.989C25.4505 247.718 25.5234 247.391 25.5234 247.01C25.5234 246.625 25.4489 246.292 25.2997 246.011C25.1539 245.729 24.9235 245.513 24.6087 245.364C24.2971 245.212 23.8878 245.136 23.3807 245.136H21.4517V254H19.9155ZM24.9418 249.406L27.4574 254H25.7074L23.2415 249.406H24.9418ZM28.4368 245.141V243.818H36.3168V245.141H33.1399V254H31.6087V245.141H28.4368ZM39.5943 243.818V254H38.0581V243.818H39.5943ZM41.8315 254V243.818H48.1454V245.141H43.3677V248.243H47.693V249.56H43.3677V254H41.8315ZM51.5708 243.818V254H50.0346V243.818H51.5708ZM62.2647 247.129H60.7136C60.6539 246.798 60.5429 246.506 60.3805 246.254C60.2181 246.002 60.0192 245.789 59.7839 245.613C59.5486 245.437 59.2851 245.305 58.9934 245.215C58.7051 245.126 58.3985 245.081 58.0737 245.081C57.487 245.081 56.9617 245.228 56.4977 245.523C56.037 245.818 55.6724 246.251 55.4039 246.821C55.1388 247.391 55.0062 248.087 55.0062 248.909C55.0062 249.738 55.1388 250.437 55.4039 251.007C55.6724 251.577 56.0386 252.008 56.5027 252.3C56.9667 252.591 57.4887 252.737 58.0687 252.737C58.3902 252.737 58.6951 252.694 58.9835 252.608C59.2752 252.518 59.5386 252.388 59.774 252.215C60.0093 252.043 60.2082 251.832 60.3706 251.584C60.5363 251.332 60.6506 251.044 60.7136 250.719L62.2647 250.724C62.1819 251.224 62.0211 251.685 61.7825 252.106C61.5472 252.523 61.2439 252.885 60.8727 253.19C60.5048 253.491 60.0839 253.725 59.6099 253.891C59.1359 254.056 58.6189 254.139 58.0588 254.139C57.1771 254.139 56.3916 253.93 55.7022 253.513C55.0128 253.092 54.4693 252.49 54.0716 251.708C53.6771 250.926 53.4799 249.993 53.4799 248.909C53.4799 247.822 53.6788 246.889 54.0765 246.11C54.4743 245.328 55.0178 244.728 55.7072 244.31C56.3966 243.889 57.1805 243.679 58.0588 243.679C58.599 243.679 59.1028 243.757 59.5701 243.913C60.0408 244.065 60.4634 244.29 60.8379 244.589C61.2124 244.884 61.5223 245.245 61.7676 245.673C62.0128 246.097 62.1786 246.582 62.2647 247.129ZM64.8947 254H63.264L66.9281 243.818H68.7029L72.367 254H70.7363L67.8578 245.668H67.7782L64.8947 254ZM65.1681 250.013H70.4579V251.305H65.1681V250.013ZM77.1335 254H73.8374V243.818H77.2379C78.2356 243.818 79.0923 244.022 79.8082 244.43C80.5241 244.834 81.0727 245.416 81.4538 246.175C81.8383 246.93 82.0305 247.837 82.0305 248.894C82.0305 249.955 81.8366 250.866 81.4489 251.629C81.0644 252.391 80.5076 252.978 79.7784 253.388C79.0492 253.796 78.1676 254 77.1335 254ZM75.3736 252.658H77.049C77.8246 252.658 78.4692 252.512 78.983 252.22C79.4967 251.925 79.8812 251.499 80.1364 250.942C80.3916 250.382 80.5192 249.7 80.5192 248.894C80.5192 248.095 80.3916 247.418 80.1364 246.861C79.8845 246.304 79.5083 245.881 79.0078 245.593C78.5073 245.305 77.8859 245.161 77.1435 245.161H75.3736V252.658ZM92.7853 248.909C92.7853 249.996 92.5865 250.931 92.1887 251.713C91.791 252.492 91.2458 253.092 90.5531 253.513C89.8637 253.93 89.0798 254.139 88.2015 254.139C87.3199 254.139 86.5327 253.93 85.84 253.513C85.1506 253.092 84.6071 252.49 84.2093 251.708C83.8116 250.926 83.6127 249.993 83.6127 248.909C83.6127 247.822 83.8116 246.889 84.2093 246.11C84.6071 245.328 85.1506 244.728 85.84 244.31C86.5327 243.889 87.3199 243.679 88.2015 243.679C89.0798 243.679 89.8637 243.889 90.5531 244.31C91.2458 244.728 91.791 245.328 92.1887 246.11C92.5865 246.889 92.7853 247.822 92.7853 248.909ZM91.264 248.909C91.264 248.08 91.1298 247.383 90.8613 246.816C90.5962 246.246 90.2316 245.815 89.7676 245.523C89.3069 245.228 88.7849 245.081 88.2015 245.081C87.6149 245.081 87.0912 245.228 86.6305 245.523C86.1698 245.815 85.8052 246.246 85.5368 246.816C85.2716 247.383 85.139 248.08 85.139 248.909C85.139 249.738 85.2716 250.437 85.5368 251.007C85.8052 251.574 86.1698 252.005 86.6305 252.3C87.0912 252.591 87.6149 252.737 88.2015 252.737C88.7849 252.737 89.3069 252.591 89.7676 252.3C90.2316 252.005 90.5962 251.574 90.8613 251.007C91.1298 250.437 91.264 249.738 91.264 248.909ZM98.4057 254V243.818H104.789V245.141H99.9419V248.243H104.456V249.56H99.9419V252.678H104.849V254H98.4057ZM113.843 254H110.546V243.818H113.947C114.945 243.818 115.801 244.022 116.517 244.43C117.233 244.834 117.782 245.416 118.163 246.175C118.547 246.93 118.74 247.837 118.74 248.894C118.74 249.955 118.546 250.866 118.158 251.629C117.773 252.391 117.217 252.978 116.487 253.388C115.758 253.796 114.877 254 113.843 254ZM112.083 252.658H113.758C114.534 252.658 115.178 252.512 115.692 252.22C116.206 251.925 116.59 251.499 116.845 250.942C117.101 250.382 117.228 249.7 117.228 248.894C117.228 248.095 117.101 247.418 116.845 246.861C116.593 246.304 116.217 245.881 115.717 245.593C115.216 245.305 114.595 245.161 113.852 245.161H112.083V252.658ZM128.868 243.818V254H127.456L122.281 246.533H122.186V254H120.65V243.818H122.072L127.252 251.295H127.347V243.818H128.868ZM136.662 246.493C136.609 246.022 136.39 245.658 136.006 245.399C135.621 245.137 135.137 245.006 134.554 245.006C134.137 245.006 133.775 245.073 133.47 245.205C133.165 245.335 132.928 245.513 132.759 245.742C132.594 245.968 132.511 246.224 132.511 246.513C132.511 246.755 132.567 246.964 132.68 247.139C132.796 247.315 132.947 247.462 133.132 247.582C133.321 247.698 133.523 247.795 133.739 247.875C133.954 247.951 134.161 248.014 134.36 248.064L135.355 248.322C135.679 248.402 136.012 248.51 136.354 248.646C136.695 248.781 137.012 248.96 137.303 249.183C137.595 249.405 137.83 249.68 138.009 250.008C138.192 250.336 138.283 250.729 138.283 251.186C138.283 251.763 138.134 252.275 137.835 252.722C137.54 253.17 137.111 253.523 136.548 253.781C135.988 254.04 135.31 254.169 134.514 254.169C133.752 254.169 133.093 254.048 132.536 253.806C131.979 253.564 131.543 253.221 131.228 252.777C130.913 252.33 130.739 251.799 130.706 251.186H132.247C132.277 251.554 132.396 251.861 132.605 252.106C132.817 252.348 133.088 252.528 133.416 252.648C133.747 252.764 134.11 252.822 134.504 252.822C134.939 252.822 135.325 252.754 135.663 252.618C136.004 252.479 136.273 252.286 136.468 252.041C136.664 251.793 136.762 251.503 136.762 251.171C136.762 250.87 136.675 250.623 136.503 250.43C136.334 250.238 136.104 250.079 135.812 249.953C135.524 249.827 135.197 249.716 134.833 249.62L133.629 249.292C132.814 249.07 132.168 248.743 131.691 248.312C131.217 247.882 130.98 247.312 130.98 246.602C130.98 246.016 131.139 245.504 131.457 245.066C131.775 244.629 132.206 244.289 132.749 244.047C133.293 243.802 133.906 243.679 134.589 243.679C135.278 243.679 135.887 243.8 136.414 244.042C136.944 244.284 137.361 244.617 137.666 245.041C137.971 245.462 138.13 245.946 138.144 246.493H136.662Z" fill="white"/>
<path d="M271 249L147 249" stroke="url(#paint5_linear_2664_7073)"/>
<path d="M225 182L89 182" stroke="url(#paint6_linear_2664_7073)"/>
<path d="M11.9682 176.818H13.8326L17.074 184.733H17.1934L20.4348 176.818H22.2992V187H20.8375V179.632H20.7431L17.7402 186.985H16.5272L13.5243 179.627H13.4299V187H11.9682V176.818ZM25.3928 187H23.7621L27.4261 176.818H29.201L32.8651 187H31.2344L28.3558 178.668H28.2763L25.3928 187ZM25.6662 183.013H30.956V184.305H25.6662V183.013ZM34.3354 187V176.818H35.8716V185.678H40.4853V187H34.3354ZM44.04 187L41.2161 176.818H42.8319L44.8155 184.703H44.91L46.9732 176.818H48.574L50.6373 184.708H50.7317L52.7104 176.818H54.3311L51.5023 187H49.9561L47.8134 179.374H47.7338L45.5911 187H44.04ZM55.717 187H54.0863L57.7504 176.818H59.5252L63.1893 187H61.5586L58.68 178.668H58.6005L55.717 187ZM55.9904 183.013H61.2802V184.305H55.9904V183.013ZM64.6596 187V176.818H68.2889C69.0777 176.818 69.7323 176.954 70.2527 177.226C70.7763 177.498 71.1674 177.874 71.426 178.354C71.6845 178.832 71.8137 179.384 71.8137 180.01C71.8137 180.633 71.6828 181.182 71.421 181.656C71.1625 182.126 70.7714 182.492 70.2477 182.754C69.7273 183.016 69.0727 183.147 68.2839 183.147H65.5346V181.825H68.1447C68.6419 181.825 69.0462 181.753 69.3578 181.611C69.6726 181.468 69.903 181.261 70.0488 180.989C70.1947 180.718 70.2676 180.391 70.2676 180.01C70.2676 179.625 70.193 179.292 70.0439 179.011C69.898 178.729 69.6677 178.513 69.3528 178.364C69.0413 178.212 68.6319 178.136 68.1248 178.136H66.1958V187H64.6596ZM69.6859 182.406L72.2015 187H70.4515L67.9856 182.406H69.6859ZM73.6831 187V176.818H80.0666V178.141H75.2193V181.243H79.7335V182.56H75.2193V185.678H80.1262V187H73.6831Z" fill="white"/>
<path d="M213 115L89 115" stroke="url(#paint7_linear_2664_7073)"/>
<path d="M20.0632 109.818V120H18.6513L13.4759 112.533H13.3814V120H11.8452V109.818H13.267L18.4474 117.295H18.5419V109.818H20.0632ZM22.3042 120V109.818H28.6877V111.141H23.8404V114.243H28.3546V115.56H23.8404V118.678H28.7473V120H22.3042ZM30.2376 111.141V109.818H38.1175V111.141H34.9407V120H33.4094V111.141H30.2376ZM41.8525 120L39.0286 109.818H40.6444L42.628 117.703H42.7225L44.7857 109.818H46.3865L48.4498 117.708H48.5442L50.5229 109.818H52.1436L49.3148 120H47.7686L45.6259 112.374H45.5463L43.4036 120H41.8525ZM61.883 114.909C61.883 115.996 61.6841 116.931 61.2864 117.713C60.8887 118.492 60.3435 119.092 59.6507 119.513C58.9614 119.93 58.1775 120.139 57.2992 120.139C56.4176 120.139 55.6304 119.93 54.9377 119.513C54.2483 119.092 53.7047 118.49 53.307 117.708C52.9093 116.926 52.7104 115.993 52.7104 114.909C52.7104 113.822 52.9093 112.889 53.307 112.11C53.7047 111.328 54.2483 110.728 54.9377 110.31C55.6304 109.889 56.4176 109.679 57.2992 109.679C58.1775 109.679 58.9614 109.889 59.6507 110.31C60.3435 110.728 60.8887 111.328 61.2864 112.11C61.6841 112.889 61.883 113.822 61.883 114.909ZM60.3617 114.909C60.3617 114.08 60.2275 113.383 59.959 112.816C59.6938 112.246 59.3292 111.815 58.8652 111.523C58.4045 111.228 57.8825 111.081 57.2992 111.081C56.7125 111.081 56.1889 111.228 55.7282 111.523C55.2675 111.815 54.9029 112.246 54.6344 112.816C54.3693 113.383 54.2367 114.08 54.2367 114.909C54.2367 115.738 54.3693 116.437 54.6344 117.007C54.9029 117.574 55.2675 118.005 55.7282 118.3C56.1889 118.591 56.7125 118.737 57.2992 118.737C57.8825 118.737 58.4045 118.591 58.8652 118.3C59.3292 118.005 59.6938 117.574 59.959 117.007C60.2275 116.437 60.3617 115.738 60.3617 114.909ZM63.7983 120V109.818H67.4276C68.2164 109.818 68.871 109.954 69.3913 110.226C69.915 110.498 70.3061 110.874 70.5646 111.354C70.8232 111.832 70.9524 112.384 70.9524 113.01C70.9524 113.633 70.8215 114.182 70.5597 114.656C70.3011 115.126 69.91 115.492 69.3864 115.754C68.866 116.016 68.2114 116.147 67.4226 116.147H64.6733V114.825H67.2834C67.7805 114.825 68.1849 114.753 68.4964 114.611C68.8113 114.468 69.0417 114.261 69.1875 113.989C69.3333 113.718 69.4062 113.391 69.4062 113.01C69.4062 112.625 69.3317 112.292 69.1825 112.011C69.0367 111.729 68.8063 111.513 68.4915 111.364C68.1799 111.212 67.7706 111.136 67.2635 111.136H65.3345V120H63.7983ZM68.8246 115.406L71.3402 120H69.5902L67.1243 115.406H68.8246ZM72.8217 120V109.818H74.358V114.68H74.4822L78.7528 109.818H80.6868L76.5803 114.402L80.7017 120H78.8523L75.5611 115.451L74.358 116.833V120H72.8217Z" fill="white"/>
<path d="M258 48L134 48" stroke="url(#paint8_linear_2664_7073)"/>
<path d="M70.1181 53L67.2942 42.8182H68.91L70.8936 50.7031H70.9881L73.0513 42.8182H74.6522L76.7154 50.7081H76.8098L78.7885 42.8182H80.4093L77.5804 53H76.0343L73.8915 45.3736H73.812L71.6692 53H70.1181ZM81.81 53V42.8182H88.1935V44.1406H83.3462V47.2429H87.8604V48.5604H83.3462V51.6776H88.2532V53H81.81ZM90.2456 53V42.8182H93.9743C94.6968 42.8182 95.295 42.9375 95.769 43.1761C96.243 43.4115 96.5976 43.7313 96.8329 44.1357C97.0682 44.5367 97.1859 44.9891 97.1859 45.4929C97.1859 45.9171 97.108 46.2751 96.9522 46.5668C96.7965 46.8551 96.5877 47.0871 96.3258 47.2628C96.0673 47.4351 95.7823 47.5611 95.4707 47.6406V47.7401C95.8088 47.7566 96.1386 47.866 96.46 48.0682C96.7849 48.267 97.0533 48.5504 97.2654 48.9183C97.4776 49.2862 97.5836 49.7337 97.5836 50.2607C97.5836 50.781 97.461 51.2483 97.2157 51.6626C96.9738 52.0736 96.5993 52.4001 96.0922 52.642C95.5851 52.8807 94.9371 53 94.1483 53H90.2456ZM91.7818 51.6825H93.9991C94.7349 51.6825 95.2619 51.54 95.5801 51.255C95.8983 50.9699 96.0574 50.6136 96.0574 50.1861C96.0574 49.8646 95.9761 49.5696 95.8137 49.3011C95.6513 49.0327 95.4193 48.8189 95.1177 48.6598C94.8194 48.5007 94.4648 48.4212 94.0538 48.4212H91.7818V51.6825ZM91.7818 47.223H93.84C94.1847 47.223 94.4946 47.1567 94.7697 47.0241C95.0481 46.8916 95.2685 46.706 95.4309 46.4673C95.5967 46.2254 95.6795 45.9403 95.6795 45.6122C95.6795 45.1913 95.532 44.8383 95.237 44.5533C94.9421 44.2682 94.4896 44.1257 93.8798 44.1257H91.7818V47.223ZM100.266 53H98.6351L102.299 42.8182H104.074L107.738 53H106.107L103.229 44.6676H103.149L100.266 53ZM100.539 49.0128H105.829V50.3054H100.539V49.0128ZM109.208 53V42.8182H112.838C113.63 42.8182 114.286 42.9624 114.806 43.2507C115.327 43.5391 115.716 43.9335 115.975 44.4339C116.233 44.9311 116.363 45.4912 116.363 46.1143C116.363 46.7408 116.232 47.3042 115.97 47.8047C115.711 48.3018 115.32 48.6963 114.797 48.9879C114.276 49.2763 113.622 49.4205 112.833 49.4205H110.337V48.1179H112.694C113.194 48.1179 113.6 48.0317 113.912 47.8594C114.223 47.6837 114.452 47.4451 114.598 47.1435C114.743 46.8419 114.816 46.4988 114.816 46.1143C114.816 45.7299 114.743 45.3885 114.598 45.0902C114.452 44.7919 114.221 44.5582 113.907 44.3892C113.595 44.2202 113.184 44.1357 112.674 44.1357H110.745V53H109.208ZM118.164 53V42.8182H121.793C122.585 42.8182 123.241 42.9624 123.762 43.2507C124.282 43.5391 124.671 43.9335 124.93 44.4339C125.188 44.9311 125.318 45.4912 125.318 46.1143C125.318 46.7408 125.187 47.3042 124.925 47.8047C124.666 48.3018 124.275 48.6963 123.752 48.9879C123.231 49.2763 122.577 49.4205 121.788 49.4205H119.292V48.1179H121.649C122.149 48.1179 122.555 48.0317 122.867 47.8594C123.178 47.6837 123.407 47.4451 123.553 47.1435C123.699 46.8419 123.771 46.4988 123.771 46.1143C123.771 45.7299 123.699 45.3885 123.553 45.0902C123.407 44.7919 123.177 44.5582 122.862 44.3892C122.55 44.2202 122.139 44.1357 121.629 44.1357H119.7V53H118.164Z" fill="white"/>
<path d="M417 71L563 71" stroke="url(#paint9_linear_2664_7073)"/>
<path d="M572.119 76V65.8182H578.502V67.1406H573.655V70.2429H578.169V71.5604H573.655V74.6776H578.562V76H572.119ZM588.772 65.8182V76H587.36L582.185 68.5327H582.09V76H580.554V65.8182H581.976L587.156 73.2955H587.251V65.8182H588.772ZM594.309 76H591.013V65.8182H594.414C595.411 65.8182 596.268 66.022 596.984 66.4297C597.7 66.834 598.248 67.4157 598.63 68.1747C599.014 68.9304 599.206 69.8369 599.206 70.8942C599.206 71.9548 599.012 72.8662 598.625 73.6286C598.24 74.3909 597.683 74.9775 596.954 75.3885C596.225 75.7962 595.343 76 594.309 76ZM592.549 74.6577H594.225C595 74.6577 595.645 74.5118 596.159 74.2202C596.672 73.9252 597.057 73.4993 597.312 72.9425C597.567 72.3823 597.695 71.6996 597.695 70.8942C597.695 70.0954 597.567 69.4176 597.312 68.8608C597.06 68.304 596.684 67.8814 596.184 67.593C595.683 67.3047 595.062 67.1605 594.319 67.1605H592.549V74.6577ZM601.117 76V65.8182H604.746C605.538 65.8182 606.194 65.9624 606.715 66.2507C607.235 66.5391 607.624 66.9335 607.883 67.4339C608.142 67.9311 608.271 68.4912 608.271 69.1143C608.271 69.7408 608.14 70.3042 607.878 70.8047C607.619 71.3018 607.228 71.6963 606.705 71.9879C606.184 72.2763 605.53 72.4205 604.741 72.4205H602.245V71.1179H604.602C605.102 71.1179 605.508 71.0317 605.82 70.8594C606.131 70.6837 606.36 70.4451 606.506 70.1435C606.652 69.8419 606.725 69.4988 606.725 69.1143C606.725 68.7299 606.652 68.3885 606.506 68.0902C606.36 67.7919 606.13 67.5582 605.815 67.3892C605.503 67.2202 605.092 67.1357 604.582 67.1357H602.653V76H601.117ZM618.916 70.9091C618.916 71.9962 618.717 72.9309 618.32 73.7131C617.922 74.492 617.377 75.0919 616.684 75.5128C615.995 75.9304 615.211 76.1392 614.332 76.1392C613.451 76.1392 612.664 75.9304 611.971 75.5128C611.281 75.0919 610.738 74.4903 610.34 73.7081C609.942 72.9259 609.744 71.9929 609.744 70.9091C609.744 69.822 609.942 68.889 610.34 68.1101C610.738 67.3279 611.281 66.728 611.971 66.3104C612.664 65.8894 613.451 65.679 614.332 65.679C615.211 65.679 615.995 65.8894 616.684 66.3104C617.377 66.728 617.922 67.3279 618.32 68.1101C618.717 68.889 618.916 69.822 618.916 70.9091ZM617.395 70.9091C617.395 70.0805 617.261 69.3828 616.992 68.8161C616.727 68.246 616.362 67.8151 615.898 67.5234C615.438 67.2285 614.916 67.081 614.332 67.081C613.746 67.081 613.222 67.2285 612.761 67.5234C612.301 67.8151 611.936 68.246 611.668 68.8161C611.402 69.3828 611.27 70.0805 611.27 70.9091C611.27 71.7377 611.402 72.437 611.668 73.0071C611.936 73.5739 612.301 74.0047 612.761 74.2997C613.222 74.5914 613.746 74.7372 614.332 74.7372C614.916 74.7372 615.438 74.5914 615.898 74.2997C616.362 74.0047 616.727 73.5739 616.992 73.0071C617.261 72.437 617.395 71.7377 617.395 70.9091ZM622.368 65.8182V76H620.831V65.8182H622.368ZM632.823 65.8182V76H631.411L626.236 68.5327H626.141V76H624.605V65.8182H626.027L631.207 73.2955H631.302V65.8182H632.823ZM634.562 67.1406V65.8182H642.442V67.1406H639.265V76H637.734V67.1406H634.562Z" fill="white"/>
<path d="M411 34L547 34" stroke="url(#paint10_linear_2664_7073)"/>
<path d="M556.979 39H555.348L559.012 28.8182H560.787L564.451 39H562.82L559.942 30.6676H559.862L556.979 39ZM557.252 35.0128H562.542V36.3054H557.252V35.0128ZM565.921 39V28.8182H569.551C570.343 28.8182 570.999 28.9624 571.519 29.2507C572.04 29.5391 572.429 29.9335 572.688 30.4339C572.946 30.9311 573.075 31.4912 573.075 32.1143C573.075 32.7408 572.945 33.3042 572.683 33.8047C572.424 34.3018 572.033 34.6963 571.509 34.9879C570.989 35.2763 570.334 35.4205 569.546 35.4205H567.05V34.1179H569.406C569.907 34.1179 570.313 34.0317 570.624 33.8594C570.936 33.6837 571.165 33.4451 571.311 33.1435C571.456 32.8419 571.529 32.4988 571.529 32.1143C571.529 31.7299 571.456 31.3885 571.311 31.0902C571.165 30.7919 570.934 30.5582 570.619 30.3892C570.308 30.2202 569.897 30.1357 569.387 30.1357H567.458V39H565.921ZM574.876 39V28.8182H576.413V37.6776H581.026V39H574.876ZM584.315 28.8182V39H582.779V28.8182H584.315ZM595.009 32.1293H593.458C593.398 31.7978 593.287 31.5062 593.125 31.2543C592.962 31.0024 592.763 30.7886 592.528 30.6129C592.293 30.4373 592.029 30.3047 591.738 30.2152C591.449 30.1257 591.143 30.081 590.818 30.081C590.231 30.081 589.706 30.2285 589.242 30.5234C588.781 30.8184 588.417 31.2509 588.148 31.821C587.883 32.3911 587.75 33.0871 587.75 33.9091C587.75 34.7377 587.883 35.437 588.148 36.0071C588.417 36.5772 588.783 37.008 589.247 37.2997C589.711 37.5914 590.233 37.7372 590.813 37.7372C591.134 37.7372 591.439 37.6941 591.728 37.608C592.019 37.5185 592.283 37.3875 592.518 37.2152C592.753 37.0429 592.952 36.8324 593.115 36.5838C593.28 36.3319 593.395 36.0436 593.458 35.7188L595.009 35.7237C594.926 36.2242 594.765 36.6849 594.527 37.1058C594.291 37.5234 593.988 37.8847 593.617 38.1896C593.249 38.4912 592.828 38.7249 592.354 38.8906C591.88 39.0563 591.363 39.1392 590.803 39.1392C589.921 39.1392 589.136 38.9304 588.446 38.5128C587.757 38.0919 587.213 37.4903 586.816 36.7081C586.421 35.9259 586.224 34.9929 586.224 33.9091C586.224 32.822 586.423 31.889 586.821 31.1101C587.218 30.3279 587.762 29.728 588.451 29.3104C589.141 28.8894 589.925 28.679 590.803 28.679C591.343 28.679 591.847 28.7569 592.314 28.9126C592.785 29.0651 593.208 29.2905 593.582 29.5888C593.957 29.8838 594.266 30.245 594.512 30.6726C594.757 31.0968 594.923 31.5824 595.009 32.1293ZM597.639 39H596.008L599.672 28.8182H601.447L605.111 39H603.48L600.602 30.6676H600.522L597.639 39ZM597.912 35.0128H603.202V36.3054H597.912V35.0128ZM614.56 32.1293H613.009C612.949 31.7978 612.838 31.5062 612.675 31.2543C612.513 31.0024 612.314 30.7886 612.079 30.6129C611.844 30.4373 611.58 30.3047 611.288 30.2152C611 30.1257 610.693 30.081 610.369 30.081C609.782 30.081 609.257 30.2285 608.793 30.5234C608.332 30.8184 607.967 31.2509 607.699 31.821C607.434 32.3911 607.301 33.0871 607.301 33.9091C607.301 34.7377 607.434 35.437 607.699 36.0071C607.967 36.5772 608.334 37.008 608.798 37.2997C609.262 37.5914 609.784 37.7372 610.364 37.7372C610.685 37.7372 610.99 37.6941 611.278 37.608C611.57 37.5185 611.834 37.3875 612.069 37.2152C612.304 37.0429 612.503 36.8324 612.665 36.5838C612.831 36.3319 612.946 36.0436 613.009 35.7188L614.56 35.7237C614.477 36.2242 614.316 36.6849 614.077 37.1058C613.842 37.5234 613.539 37.8847 613.168 38.1896C612.8 38.4912 612.379 38.7249 611.905 38.8906C611.431 39.0563 610.914 39.1392 610.354 39.1392C609.472 39.1392 608.687 38.9304 607.997 38.5128C607.308 38.0919 606.764 37.4903 606.366 36.7081C605.972 35.9259 605.775 34.9929 605.775 33.9091C605.775 32.822 605.974 31.889 606.371 31.1101C606.769 30.3279 607.313 29.728 608.002 29.3104C608.692 28.8894 609.475 28.679 610.354 28.679C610.894 28.679 611.398 28.7569 611.865 28.9126C612.336 29.0651 612.758 29.2905 613.133 29.5888C613.507 29.8838 613.817 30.245 614.062 30.6726C614.308 31.0968 614.473 31.5824 614.56 32.1293ZM609.832 39.0149H610.806L610.727 39.4226C611.015 39.469 611.267 39.585 611.482 39.7706C611.698 39.9562 611.805 40.2363 611.805 40.6108C611.809 41.0582 611.615 41.4212 611.224 41.6996C610.836 41.978 610.274 42.1172 609.538 42.1172L609.509 41.2869C609.853 41.2869 610.132 41.2372 610.344 41.1378C610.559 41.0384 610.669 40.8776 610.672 40.6555C610.675 40.4335 610.592 40.2777 610.423 40.1882C610.258 40.0987 609.992 40.0357 609.628 39.9993L609.832 39.0149ZM617.19 39H615.559L619.223 28.8182H620.998L624.662 39H623.031L620.153 30.6676H620.073L617.19 39ZM617.463 35.0128H622.753V36.3054H617.463V35.0128ZM618.616 27.8089L617.612 27.7741C617.612 27.2273 617.761 26.7898 618.06 26.4616C618.358 26.1335 618.724 25.9678 619.158 25.9645C619.364 25.9645 619.543 25.9993 619.695 26.0689C619.848 26.1352 619.99 26.2131 620.123 26.3026C620.255 26.392 620.39 26.4716 620.526 26.5412C620.661 26.6075 620.812 26.6406 620.978 26.6406C621.167 26.6373 621.321 26.5644 621.44 26.4219C621.563 26.276 621.624 26.0954 621.624 25.88L622.609 25.9446C622.605 26.4981 622.455 26.9339 622.156 27.2521C621.861 27.567 621.497 27.7244 621.062 27.7244C620.827 27.7244 620.632 27.6913 620.476 27.625C620.32 27.5554 620.183 27.4775 620.063 27.3913C619.944 27.3018 619.821 27.224 619.695 27.1577C619.569 27.0881 619.419 27.0533 619.243 27.0533C619.061 27.0533 618.91 27.1245 618.79 27.267C618.674 27.4096 618.616 27.5902 618.616 27.8089ZM634.498 33.9091C634.498 34.9962 634.299 35.9309 633.902 36.7131C633.504 37.492 632.959 38.0919 632.266 38.5128C631.577 38.9304 630.793 39.1392 629.914 39.1392C629.033 39.1392 628.246 38.9304 627.553 38.5128C626.864 38.0919 626.32 37.4903 625.922 36.7081C625.525 35.9259 625.326 34.9929 625.326 33.9091C625.326 32.822 625.525 31.889 625.922 31.1101C626.32 30.3279 626.864 29.728 627.553 29.3104C628.246 28.8894 629.033 28.679 629.914 28.679C630.793 28.679 631.577 28.8894 632.266 29.3104C632.959 29.728 633.504 30.3279 633.902 31.1101C634.299 31.889 634.498 32.822 634.498 33.9091ZM632.977 33.9091C632.977 33.0805 632.843 32.3828 632.574 31.8161C632.309 31.246 631.944 30.8151 631.48 30.5234C631.02 30.2285 630.498 30.081 629.914 30.081C629.328 30.081 628.804 30.2285 628.343 30.5234C627.883 30.8151 627.518 31.246 627.25 31.8161C626.984 32.3828 626.852 33.0805 626.852 33.9091C626.852 34.7377 626.984 35.437 627.25 36.0071C627.518 36.5739 627.883 37.0047 628.343 37.2997C628.804 37.5914 629.328 37.7372 629.914 37.7372C630.498 37.7372 631.02 37.5914 631.48 37.2997C631.944 37.0047 632.309 36.5739 632.574 36.0071C632.843 35.437 632.977 34.7377 632.977 33.9091Z" fill="white"/>
<rect x="526" y="215" width="36.5806" height="8.50711" fill="url(#paint11_linear_2664_7073)" fill-opacity="0.5"/>
<rect x="464" y="141" width="36.5806" height="8.50711" fill="url(#paint12_linear_2664_7073)" fill-opacity="0.5"/>
<rect x="482" y="67" width="36.5806" height="8.50711" fill="url(#paint13_linear_2664_7073)" fill-opacity="0.5"/>
<rect x="562.58" y="215" width="8.50711" height="8.50711" fill="#FF6F29"/>
<rect x="500.58" y="141" width="8.50711" height="8.50711" fill="#FF6F29"/>
<rect x="518.58" y="67" width="8.50711" height="8.50711" fill="#FF6F29"/>
<path d="M336.5 143.5H327.5V152.5H336.5V143.5Z" fill="black"/>
<path d="M360.5 165.956V156.636L338.525 164.18L325.3 159.644V132.277H351.7V143.322H338.574V152.149H360.5V123.5H316.5V165.956L338.525 173.5L360.5 165.956Z" fill="white"/>
<defs>
<linearGradient id="paint0_linear_2664_7073" x1="526" y1="256" x2="397.897" y2="256" gradientUnits="userSpaceOnUse">
<stop stop-color="white"/>
<stop offset="1" stop-color="white" stop-opacity="0"/>
</linearGradient>
<linearGradient id="paint1_linear_2664_7073" x1="593" y1="219" x2="452.5" y2="219" gradientUnits="userSpaceOnUse">
<stop stop-color="white"/>
<stop offset="1" stop-color="white" stop-opacity="0"/>
</linearGradient>
<linearGradient id="paint2_linear_2664_7073" x1="526" y1="182" x2="397.897" y2="182" gradientUnits="userSpaceOnUse">
<stop stop-color="white"/>
<stop offset="1" stop-color="white" stop-opacity="0"/>
</linearGradient>
<linearGradient id="paint3_linear_2664_7073" x1="593" y1="145" x2="464.897" y2="145" gradientUnits="userSpaceOnUse">
<stop stop-color="white"/>
<stop offset="1" stop-color="white" stop-opacity="0"/>
</linearGradient>
<linearGradient id="paint4_linear_2664_7073" x1="548" y1="108" x2="419.897" y2="108" gradientUnits="userSpaceOnUse">
<stop stop-color="white"/>
<stop offset="1" stop-color="white" stop-opacity="0"/>
</linearGradient>
<linearGradient id="paint5_linear_2664_7073" x1="147" y1="249" x2="275.103" y2="249" gradientUnits="userSpaceOnUse">
<stop stop-color="white"/>
<stop offset="1" stop-color="white" stop-opacity="0"/>
</linearGradient>
<linearGradient id="paint6_linear_2664_7073" x1="89" y1="182" x2="229.5" y2="182" gradientUnits="userSpaceOnUse">
<stop stop-color="white"/>
<stop offset="1" stop-color="white" stop-opacity="0"/>
</linearGradient>
<linearGradient id="paint7_linear_2664_7073" x1="89" y1="115" x2="217.103" y2="115" gradientUnits="userSpaceOnUse">
<stop stop-color="white"/>
<stop offset="1" stop-color="white" stop-opacity="0"/>
</linearGradient>
<linearGradient id="paint8_linear_2664_7073" x1="134" y1="48" x2="262.103" y2="48" gradientUnits="userSpaceOnUse">
<stop stop-color="white"/>
<stop offset="1" stop-color="white" stop-opacity="0"/>
</linearGradient>
<linearGradient id="paint9_linear_2664_7073" x1="563" y1="71" x2="412.169" y2="71" gradientUnits="userSpaceOnUse">
<stop stop-color="white"/>
<stop offset="1" stop-color="white" stop-opacity="0"/>
</linearGradient>
<linearGradient id="paint10_linear_2664_7073" x1="547" y1="34" x2="406.5" y2="34" gradientUnits="userSpaceOnUse">
<stop stop-color="white"/>
<stop offset="1" stop-color="white" stop-opacity="0"/>
</linearGradient>
<linearGradient id="paint11_linear_2664_7073" x1="562.581" y1="218.646" x2="525.993" y2="219.599" gradientUnits="userSpaceOnUse">
<stop stop-color="#FF6F29"/>
<stop offset="1" stop-color="#FF6F29" stop-opacity="0"/>
</linearGradient>
<linearGradient id="paint12_linear_2664_7073" x1="500.581" y1="144.646" x2="463.993" y2="145.599" gradientUnits="userSpaceOnUse">
<stop stop-color="#FF6F29"/>
<stop offset="1" stop-color="#FF6F29" stop-opacity="0"/>
</linearGradient>
<linearGradient id="paint13_linear_2664_7073" x1="518.581" y1="70.6459" x2="481.993" y2="71.5986" gradientUnits="userSpaceOnUse">
<stop stop-color="#FF6F29"/>
<stop offset="1" stop-color="#FF6F29" stop-opacity="0"/>
</linearGradient>
</defs>
</svg>
