<svg width="225" height="56" viewBox="0 0 225 56" fill="none" xmlns="http://www.w3.org/2000/svg">
<rect width="225" height="56" fill="#131313"/>
<g clip-path="url(#clip0_1_11)">
<rect width="1440" height="7687" transform="translate(-871 -4085)" fill="#202125"/>
<g opacity="0.4">
<path d="M205.375 4.65L197.675 15.7C197.635 15.7579 197.613 15.8269 197.613 15.8975C197.613 15.9681 197.635 16.0371 197.675 16.095L207.25 29.76C207.291 29.8179 207.313 29.8869 207.313 29.9575C207.313 30.0281 207.291 30.0971 207.25 30.155L201.145 38.865C201.105 38.9229 201.083 38.9919 201.083 39.0625C201.083 39.1331 201.105 39.2021 201.145 39.26L208.92 50.405C208.952 50.4504 208.995 50.4874 209.044 50.513C209.093 50.5386 209.147 50.552 209.203 50.552C209.258 50.552 209.313 50.5386 209.362 50.513C209.411 50.4874 209.454 50.4504 209.485 50.405L223.66 30.18C223.701 30.1221 223.723 30.0531 223.723 29.9825C223.723 29.9119 223.701 29.8429 223.66 29.785L205.94 4.645C205.908 4.59989 205.866 4.56321 205.816 4.53806C205.767 4.51291 205.712 4.50004 205.657 4.50053C205.601 4.50102 205.547 4.51486 205.498 4.54088C205.449 4.5669 205.407 4.60433 205.375 4.65V4.65Z" fill="white"/>
<path d="M174.591 30.105L181.341 39.765C181.378 39.8169 181.4 39.8779 181.404 39.9415C181.408 40.005 181.395 40.0685 181.366 40.1249C181.336 40.1813 181.292 40.2285 181.237 40.2611C181.182 40.2938 181.12 40.3107 181.056 40.31H169.056C169 40.3094 168.945 40.3222 168.896 40.3475C168.846 40.3727 168.803 40.4096 168.771 40.455L159.771 53.295C159.734 53.3469 159.712 53.408 159.708 53.4715C159.703 53.535 159.717 53.5985 159.746 53.6549C159.776 53.7113 159.82 53.7585 159.875 53.7911C159.93 53.8238 159.992 53.8407 160.056 53.84H207.056C207.12 53.8407 207.182 53.8238 207.237 53.7911C207.292 53.7585 207.336 53.7113 207.366 53.6549C207.395 53.5985 207.408 53.535 207.404 53.4715C207.4 53.408 207.378 53.3469 207.341 53.295L190.901 29.71C190.869 29.6637 190.827 29.6258 190.777 29.5997C190.727 29.5736 190.672 29.5599 190.616 29.56H174.871C174.808 29.5602 174.746 29.5778 174.692 29.6108C174.638 29.6439 174.594 29.6911 174.565 29.7473C174.536 29.8036 174.523 29.8667 174.528 29.9298C174.532 29.9929 174.554 30.0535 174.591 30.105V30.105Z" fill="white"/>
<path d="M188.221 25.94L181.471 16.28C181.434 16.2281 181.412 16.167 181.408 16.1035C181.404 16.04 181.417 15.9765 181.447 15.9201C181.476 15.8637 181.521 15.8165 181.575 15.7839C181.63 15.7512 181.693 15.7343 181.756 15.735H193.756C193.812 15.7356 193.867 15.7228 193.917 15.6975C193.966 15.6723 194.009 15.6354 194.041 15.59L203.041 2.75C203.078 2.69777 203.1 2.63623 203.104 2.57225C203.109 2.50828 203.095 2.44441 203.065 2.38782C203.035 2.33122 202.989 2.28414 202.934 2.25185C202.879 2.21955 202.815 2.20333 202.751 2.205H155.751C155.688 2.20428 155.625 2.22119 155.57 2.25386C155.516 2.28653 155.471 2.33368 155.442 2.3901C155.412 2.44652 155.399 2.51 155.403 2.57352C155.407 2.63704 155.429 2.69812 155.466 2.75L171.911 26.315C171.943 26.3613 171.986 26.3992 172.035 26.4253C172.085 26.4514 172.14 26.4651 172.196 26.465H187.941C188.001 26.4625 188.06 26.4444 188.111 26.4124C188.162 26.3804 188.203 26.3357 188.232 26.2826C188.26 26.2296 188.274 26.1701 188.272 26.11C188.27 26.0499 188.253 25.9913 188.221 25.94V25.94Z" fill="white"/>
<path d="M19.4366 2.875L22.1516 5.96C22.4803 6.34596 22.658 6.83804 22.6516 7.345V27.345C22.6538 27.6233 22.6006 27.8994 22.495 28.1569C22.3894 28.4144 22.2336 28.6484 22.0366 28.845L18.9016 31.96C18.7049 32.157 18.471 32.3129 18.2135 32.4185C17.9559 32.5241 17.6799 32.5773 17.4016 32.575H2.38656C2.14522 32.575 1.91375 32.4791 1.7431 32.3085C1.57244 32.1378 1.47656 31.9064 1.47656 31.665V3.075C1.47656 2.9555 1.5001 2.83717 1.54583 2.72676C1.59156 2.61635 1.65859 2.51604 1.7431 2.43153C1.91375 2.26088 2.14522 2.165 2.38656 2.165H17.8866C18.1803 2.16808 18.47 2.23288 18.737 2.3552C19.0041 2.47752 19.2424 2.65462 19.4366 2.875V2.875ZM7.55656 8.245V26.5H14.1916C14.5074 26.5 14.8201 26.4378 15.1119 26.3169C15.4037 26.1961 15.6688 26.0189 15.8922 25.7956C16.1155 25.5723 16.2926 25.3071 16.4135 25.0154C16.5344 24.7236 16.5966 24.4108 16.5966 24.095V10.65C16.5966 10.0122 16.3432 9.40044 15.8922 8.94941C15.4411 8.49839 14.8294 8.245 14.1916 8.245H7.55656Z" fill="white"/>
<path d="M39.1716 2.165C39.3725 2.14033 39.5751 2.19417 39.7372 2.31528C39.8993 2.43639 40.0083 2.61541 40.0416 2.815L48.6416 31.4C48.6416 31.445 48.6866 31.615 48.6866 31.66C48.686 31.7817 48.6612 31.902 48.6137 32.014C48.5663 32.1261 48.4971 32.2276 48.4101 32.3127C48.3232 32.3978 48.2202 32.4648 48.1071 32.5098C47.9941 32.5548 47.8733 32.577 47.7516 32.575H43.6016C43.3974 32.5929 43.1934 32.5373 43.0266 32.4181C42.8597 32.2989 42.7409 32.124 42.6916 31.925L41.0816 26.5H32.5816L30.9316 31.93C30.887 32.1238 30.7751 32.2955 30.6158 32.4145C30.4565 32.5335 30.2601 32.5922 30.0616 32.58H25.8766C25.7366 32.574 25.5997 32.5369 25.4759 32.4711C25.3521 32.4054 25.2445 32.3129 25.1611 32.2002C25.0777 32.0876 25.0205 31.9577 24.9938 31.8201C24.9671 31.6825 24.9715 31.5407 25.0066 31.405L33.5666 2.815C33.6112 2.6212 33.7232 2.44952 33.8825 2.3305C34.0418 2.21147 34.2381 2.15283 34.4366 2.165H39.1716ZM36.3466 13.805L34.3916 20.41H39.2516L37.2516 13.805C37.1216 13.415 36.9916 12.805 36.8166 11.98C36.6941 12.5966 36.5372 13.2059 36.3466 13.805V13.805Z" fill="white"/>
<path d="M68.5613 2.165C68.6817 2.16185 68.8014 2.18329 68.9131 2.22799C69.0249 2.2727 69.1264 2.33973 69.2113 2.425L71.1213 4.335C71.2066 4.41997 71.2736 4.52143 71.3183 4.6332C71.363 4.74496 71.3845 4.86467 71.3813 4.985V19.105C71.3845 19.2253 71.363 19.345 71.3183 19.4568C71.2736 19.5686 71.2066 19.67 71.1213 19.755L69.2113 21.665C69.1264 21.7503 69.0249 21.8173 68.9131 21.862C68.8014 21.9067 68.6817 21.9281 68.5613 21.925H66.6513C67.0335 22.3411 67.355 22.809 67.6063 23.315L71.3013 31.265C71.3414 31.3922 71.3698 31.5227 71.3863 31.655C71.3837 31.8955 71.287 32.1255 71.1169 32.2956C70.9468 32.4657 70.7169 32.5624 70.4763 32.565H66.3013C66.1315 32.564 65.9651 32.5169 65.8198 32.4289C65.6745 32.3409 65.5558 32.2151 65.4763 32.065L60.7863 21.94H57.7013V31.66C57.7041 31.7803 57.6824 31.8998 57.6376 32.0115C57.5929 32.1231 57.5259 32.2245 57.4409 32.3096C57.3558 32.3946 57.2544 32.4615 57.1428 32.5063C57.0311 32.5511 56.9116 32.5727 56.7913 32.57H52.5313C52.4111 32.5727 52.2915 32.5511 52.1799 32.5063C52.0682 32.4615 51.9668 32.3946 51.8818 32.3096C51.7967 32.2245 51.7298 32.1231 51.685 32.0115C51.6403 31.8998 51.6186 31.7803 51.6213 31.66V3.075C51.6186 2.95475 51.6403 2.83519 51.685 2.72355C51.7298 2.61191 51.7967 2.5105 51.8818 2.42544C51.9668 2.34039 52.0682 2.27346 52.1799 2.2287C52.2915 2.18393 52.4111 2.16226 52.5313 2.165H68.5613ZM58.6113 8.245C58.4911 8.24226 58.3715 8.26393 58.2599 8.3087C58.1482 8.35346 58.0468 8.42039 57.9618 8.50544C57.8767 8.5905 57.8098 8.69191 57.765 8.80355C57.7203 8.91519 57.6986 9.03475 57.7013 9.155V14.85C57.6982 14.9703 57.7196 15.09 57.7643 15.2018C57.809 15.3136 57.8761 15.415 57.9613 15.5L58.0463 15.585C58.1313 15.6703 58.2328 15.7373 58.3445 15.782C58.4563 15.8267 58.576 15.8481 58.6963 15.845H64.3013C64.4217 15.8481 64.5414 15.8267 64.6531 15.782C64.7649 15.7373 64.8664 15.6703 64.9513 15.585L65.0363 15.5C65.1216 15.415 65.1886 15.3136 65.2333 15.2018C65.278 15.09 65.2995 14.9703 65.2963 14.85V9.245C65.2995 9.12467 65.278 9.00496 65.2333 8.8932C65.1886 8.78143 65.1216 8.67997 65.0363 8.595L64.9513 8.51C64.8664 8.42473 64.7649 8.3577 64.6531 8.31299C64.5414 8.26829 64.4217 8.24685 64.3013 8.25L58.6113 8.245Z" fill="white"/>
<path d="M111.29 2.165C111.431 2.17312 111.569 2.21377 111.693 2.28381C111.816 2.35384 111.922 2.45138 112.002 2.56887C112.082 2.68636 112.133 2.82063 112.153 2.9613C112.172 3.10196 112.159 3.24523 112.115 3.38L101.3 31.965C101.245 32.1504 101.13 32.3118 100.972 32.4227C100.813 32.5336 100.622 32.5873 100.43 32.575H97.5645C97.3744 32.5751 97.1889 32.5165 97.0332 32.4074C96.8775 32.2982 96.7593 32.1438 96.6945 31.965L93.7495 24.105C93.4996 23.533 93.3102 22.9364 93.1845 22.325V22.37C92.9695 23.065 92.7945 23.63 92.6195 24.11L89.6195 31.975C89.5695 32.154 89.4612 32.3112 89.3118 32.4217C89.1623 32.5322 88.9803 32.5896 88.7945 32.585H85.9295C85.7368 32.5973 85.5456 32.5436 85.3875 32.4327C85.2293 32.3218 85.1137 32.1604 85.0595 31.975L74.1895 3.38C74.1445 3.335 74.1445 3.205 74.1445 3.075C74.1458 2.83406 74.2421 2.60336 74.4125 2.43299C74.5829 2.26261 74.8136 2.16632 75.0545 2.165H79.1795C79.3723 2.15271 79.5635 2.20643 79.7216 2.31731C79.8797 2.42819 79.9954 2.58961 80.0495 2.775L86.7495 20.455C87.0095 21.15 87.1845 21.715 87.3145 22.195L87.3595 22.28C87.5086 21.6602 87.6973 21.0506 87.9245 20.455L90.1395 14.635L85.8745 3.38C85.8295 3.335 85.8295 3.205 85.8295 3.075C85.8302 2.95484 85.8545 2.83599 85.9011 2.72523C85.9477 2.61446 86.0156 2.51396 86.1011 2.42946C86.1865 2.34496 86.2877 2.27811 86.399 2.23274C86.5103 2.18736 86.6294 2.16434 86.7495 2.165H90.8745C91.0603 2.16037 91.2423 2.21785 91.3918 2.32834C91.5412 2.43883 91.6495 2.59602 91.6995 2.775L92.6095 5.12C92.7395 5.51 92.9545 6.075 93.1745 6.9C93.3031 6.28649 93.4958 5.6882 93.7495 5.115L94.6195 2.77C94.6737 2.58461 94.7893 2.42319 94.9475 2.31231C95.1056 2.20143 95.2968 2.14771 95.4895 2.16H99.6145C99.7609 2.15911 99.9054 2.19336 100.036 2.25988C100.166 2.3264 100.279 2.42325 100.364 2.54228C100.449 2.66132 100.505 2.79908 100.526 2.94397C100.547 3.08887 100.533 3.23669 100.485 3.375L96.2245 14.63L98.4395 20.45C98.5695 20.84 98.7895 21.45 99.0045 22.275C99.2195 21.45 99.4395 20.84 99.5695 20.45L106.295 2.77C106.349 2.58461 106.464 2.42319 106.622 2.31231C106.781 2.20143 106.972 2.14771 107.165 2.16L111.29 2.165Z" fill="white"/>
<path d="M125.805 2.165C125.925 2.16227 126.045 2.18394 126.156 2.2287C126.268 2.27347 126.369 2.34039 126.454 2.42545C126.54 2.5105 126.606 2.61191 126.651 2.72355C126.696 2.83519 126.718 2.95475 126.715 3.075V7.33C126.718 7.45025 126.696 7.56981 126.651 7.68145C126.606 7.79309 126.54 7.8945 126.454 7.97956C126.369 8.06461 126.268 8.13154 126.156 8.1763C126.045 8.22107 125.925 8.24274 125.805 8.24H123.675V26.5H125.805C125.926 26.4972 126.046 26.5191 126.158 26.5641C126.27 26.6092 126.371 26.6766 126.456 26.7622C126.541 26.8478 126.608 26.9498 126.653 27.062C126.697 27.1742 126.718 27.2943 126.715 27.415V31.67C126.718 31.7903 126.696 31.9098 126.651 32.0215C126.606 32.1331 126.54 32.2345 126.454 32.3196C126.369 32.4046 126.268 32.4715 126.156 32.5163C126.045 32.5611 125.925 32.5827 125.805 32.58H115.465C115.345 32.5827 115.225 32.5611 115.113 32.5163C115.002 32.4715 114.9 32.4046 114.815 32.3196C114.73 32.2345 114.663 32.1331 114.619 32.0215C114.574 31.9098 114.552 31.7903 114.555 31.67V27.405C114.553 27.2852 114.575 27.1662 114.62 27.0551C114.665 26.944 114.732 26.8432 114.817 26.7587C114.902 26.6742 115.003 26.6077 115.115 26.5633C115.226 26.5188 115.345 26.4973 115.465 26.5H117.595V8.245H115.465C115.345 8.24774 115.225 8.22607 115.113 8.1813C115.002 8.13654 114.9 8.06961 114.815 7.98456C114.73 7.8995 114.663 7.79809 114.619 7.68645C114.574 7.57481 114.552 7.45525 114.555 7.335V3.075C114.552 2.95475 114.574 2.83519 114.619 2.72355C114.663 2.61191 114.73 2.5105 114.815 2.42545C114.9 2.34039 115.002 2.27347 115.113 2.2287C115.225 2.18394 115.345 2.16227 115.465 2.165H125.805Z" fill="white"/>
<path d="M150.392 2.165C150.512 2.16227 150.631 2.18394 150.743 2.2287C150.855 2.27346 150.956 2.34039 151.041 2.42544C151.126 2.5105 151.193 2.61191 151.238 2.72355C151.283 2.83519 151.304 2.95475 151.302 3.075V31.66C151.304 31.7802 151.283 31.8998 151.238 32.0114C151.193 32.1231 151.126 32.2245 151.041 32.3096C150.956 32.3946 150.855 32.4615 150.743 32.5063C150.631 32.5511 150.512 32.5727 150.392 32.57H145.787C145.617 32.569 145.45 32.5219 145.305 32.4339C145.16 32.3459 145.041 32.2201 144.962 32.07L137.012 15.95C136.717 15.3701 136.463 14.7703 136.252 14.155V31.655C136.254 31.7752 136.233 31.8948 136.188 32.0064C136.143 32.1181 136.076 32.2195 135.991 32.3046C135.906 32.3896 135.805 32.4565 135.693 32.5013C135.581 32.5461 135.462 32.5677 135.342 32.565H131.102C130.981 32.5677 130.862 32.5461 130.75 32.5013C130.639 32.4565 130.537 32.3896 130.452 32.3046C130.367 32.2195 130.3 32.1181 130.255 32.0064C130.211 31.8948 130.189 31.7752 130.192 31.655V3.075C130.189 2.95475 130.211 2.83519 130.255 2.72355C130.3 2.61191 130.367 2.5105 130.452 2.42544C130.537 2.34039 130.639 2.27346 130.75 2.2287C130.862 2.18394 130.981 2.16227 131.102 2.165H135.707C135.876 2.16602 136.043 2.21306 136.188 2.3011C136.333 2.38914 136.452 2.51489 136.532 2.665L144.482 18.785C144.769 19.3607 145.016 19.9554 145.222 20.565V3.065C145.219 2.94475 145.241 2.82519 145.285 2.71355C145.33 2.60191 145.397 2.5005 145.482 2.41544C145.567 2.33039 145.669 2.26346 145.78 2.2187C145.892 2.17394 146.011 2.15227 146.132 2.155L150.392 2.165Z" fill="white"/>
<path d="M7.63624 41.57C7.68447 41.5686 7.73247 41.5773 7.77721 41.5953C7.82196 41.6134 7.86248 41.6405 7.89624 41.675L8.65624 42.435C8.69072 42.4688 8.71784 42.5093 8.73591 42.554C8.75398 42.5988 8.76261 42.6468 8.76124 42.695V44.41C8.76262 44.4583 8.75412 44.5064 8.73627 44.5513C8.71841 44.5962 8.69158 44.637 8.65741 44.6712C8.62323 44.7053 8.58244 44.7322 8.53754 44.75C8.49263 44.7679 8.44455 44.7764 8.39624 44.775H6.70124C6.65293 44.7764 6.60485 44.7679 6.55994 44.75C6.51503 44.7322 6.47424 44.7053 6.44007 44.6712C6.4059 44.637 6.37906 44.5962 6.36121 44.5513C6.34335 44.5064 6.33486 44.4583 6.33624 44.41V44.41C6.33761 44.3618 6.32898 44.3138 6.31091 44.269C6.29284 44.2243 6.26572 44.1838 6.23124 44.15L6.19624 44.115C6.16248 44.0805 6.12196 44.0534 6.07721 44.0353C6.03247 44.0173 5.98447 44.0086 5.93624 44.01H4.31624C4.268 44.0086 4.22001 44.0173 4.17526 44.0353C4.13052 44.0534 4.09 44.0805 4.05624 44.115L4.02124 44.15C3.98676 44.1838 3.95963 44.2243 3.94156 44.269C3.92349 44.3138 3.91487 44.3618 3.91624 44.41V46C3.91487 46.0482 3.92349 46.0962 3.94156 46.141C3.95963 46.1857 3.98676 46.2262 4.02124 46.26L4.05624 46.295C4.09 46.3295 4.13052 46.3566 4.17526 46.3747C4.22001 46.3927 4.268 46.4014 4.31624 46.4H7.63624C7.68444 46.3989 7.73234 46.4077 7.77704 46.4257C7.82175 46.4438 7.8623 46.4708 7.89624 46.505L8.65624 47.265C8.69072 47.2988 8.71784 47.3393 8.73591 47.384C8.75398 47.4288 8.76261 47.4768 8.76124 47.525V52.525C8.76231 52.5732 8.75355 52.6211 8.7355 52.6658C8.71744 52.7105 8.69048 52.7511 8.65624 52.785L7.89624 53.545C7.86248 53.5795 7.82196 53.6066 7.77721 53.6247C7.73247 53.6427 7.68447 53.6514 7.63624 53.65H2.63624C2.588 53.6514 2.54001 53.6427 2.49526 53.6247C2.45052 53.6066 2.41 53.5795 2.37624 53.545L1.60124 52.81C1.567 52.7761 1.54003 52.7355 1.52198 52.6908C1.50393 52.6461 1.49517 52.5982 1.49624 52.55V50.62C1.49486 50.5717 1.50335 50.5236 1.52121 50.4787C1.53906 50.4338 1.5659 50.393 1.60007 50.3588C1.63424 50.3247 1.67503 50.2978 1.71994 50.28C1.76485 50.2621 1.81293 50.2536 1.86124 50.255H3.55624C3.60455 50.2536 3.65263 50.2621 3.69754 50.28C3.74244 50.2978 3.78323 50.3247 3.81741 50.3588C3.85158 50.393 3.87841 50.4338 3.89627 50.4787C3.91412 50.5236 3.92262 50.5717 3.92124 50.62V50.855C3.91987 50.9032 3.92849 50.9512 3.94656 50.996C3.96463 51.0407 3.99176 51.0812 4.02624 51.115L4.06124 51.15C4.09518 51.1842 4.13573 51.2112 4.18043 51.2293C4.22513 51.2473 4.27304 51.2561 4.32124 51.255H5.94624C5.99444 51.2561 6.04234 51.2473 6.08704 51.2293C6.13175 51.2112 6.1723 51.1842 6.20624 51.15L6.24124 51.115C6.27572 51.0812 6.30284 51.0407 6.32091 50.996C6.33898 50.9512 6.3476 50.9032 6.34624 50.855V49.23C6.3476 49.1818 6.33898 49.1338 6.32091 49.089C6.30284 49.0443 6.27572 49.0038 6.24124 48.97L6.20624 48.935C6.17248 48.9005 6.13196 48.8734 6.08721 48.8553C6.04247 48.8373 5.99447 48.8286 5.94624 48.83H2.62124C2.573 48.8314 2.52501 48.8227 2.48026 48.8047C2.43552 48.7866 2.395 48.7595 2.36124 48.725L1.60124 47.965C1.56676 47.9312 1.53963 47.8907 1.52156 47.846C1.50349 47.8012 1.49487 47.7532 1.49624 47.705V42.705C1.49487 42.6568 1.50349 42.6088 1.52156 42.564C1.53963 42.5193 1.56676 42.4788 1.60124 42.445L2.36124 41.685C2.395 41.6505 2.43552 41.6234 2.48026 41.6053C2.52501 41.5873 2.573 41.5786 2.62124 41.58L7.63624 41.57Z" fill="white"/>
<path d="M29.1648 41.57C29.2131 41.5686 29.2612 41.5771 29.3061 41.595C29.351 41.6128 29.3918 41.6397 29.426 41.6738C29.4602 41.708 29.487 41.7488 29.5049 41.7937C29.5227 41.8386 29.5312 41.8867 29.5298 41.935V43.63C29.5312 43.6783 29.5227 43.7264 29.5049 43.7713C29.487 43.8162 29.4602 43.857 29.426 43.8912C29.3918 43.9253 29.351 43.9522 29.3061 43.97C29.2612 43.9879 29.2131 43.9964 29.1648 43.995H26.4998V53.315C26.5012 53.3633 26.4927 53.4114 26.4749 53.4563C26.457 53.5012 26.4302 53.542 26.396 53.5762C26.3618 53.6103 26.321 53.6372 26.2761 53.655C26.2312 53.6729 26.1831 53.6814 26.1348 53.68H24.4448C24.3965 53.6814 24.3484 53.6729 24.3035 53.655C24.2586 53.6372 24.2178 53.6103 24.1837 53.5762C24.1495 53.542 24.1227 53.5012 24.1048 53.4563C24.0869 53.4114 24.0785 53.3633 24.0798 53.315V44H21.4198C21.3715 44.0014 21.3234 43.9929 21.2785 43.975C21.2336 43.9572 21.1928 43.9303 21.1587 43.8962C21.1245 43.862 21.0977 43.8212 21.0798 43.7763C21.0619 43.7314 21.0535 43.6833 21.0548 43.635V41.93C21.0535 41.8817 21.0619 41.8336 21.0798 41.7887C21.0977 41.7438 21.1245 41.703 21.1587 41.6688C21.1928 41.6347 21.2336 41.6078 21.2785 41.59C21.3234 41.5721 21.3715 41.5636 21.4198 41.565L29.1648 41.57Z" fill="white"/>
<path d="M46.0156 41.57C46.0956 41.5599 46.1764 41.5815 46.2409 41.63C46.3053 41.6786 46.3482 41.7503 46.3606 41.83L49.7856 53.21C49.7856 53.21 49.7856 53.295 49.7856 53.315C49.7856 53.4118 49.7472 53.5046 49.6787 53.5731C49.6103 53.6415 49.5174 53.68 49.4206 53.68H47.7806C47.6986 53.6883 47.6164 53.6665 47.5492 53.6186C47.4821 53.5708 47.4346 53.5002 47.4156 53.42L46.7756 51.26H43.3906L42.7506 53.415C42.733 53.4921 42.6888 53.5605 42.6256 53.608C42.5625 53.6556 42.4845 53.6793 42.4056 53.675H40.7506C40.6953 53.6722 40.6414 53.6572 40.5926 53.6311C40.5438 53.605 40.5013 53.5684 40.4684 53.5239C40.4354 53.4795 40.4127 53.4283 40.4018 53.374C40.391 53.3197 40.3923 53.2637 40.4056 53.21L43.8106 41.83C43.8282 41.7529 43.8725 41.6845 43.9356 41.637C43.9987 41.5894 44.0767 41.5657 44.1556 41.57H46.0156ZM44.8906 46.205L44.1106 48.835H46.0506L45.2506 46.205C45.2006 46.05 45.1456 45.805 45.0756 45.48C45.029 45.7248 44.9689 45.9668 44.8956 46.205H44.8906Z" fill="white"/>
<path d="M68.8539 41.57C68.9021 41.5686 68.9501 41.5773 68.9949 41.5953C69.0396 41.6134 69.0801 41.6405 69.1139 41.675L69.8739 42.435C69.9084 42.4688 69.9355 42.5093 69.9536 42.554C69.9716 42.5988 69.9803 42.6468 69.9789 42.695V48.315C69.9803 48.3632 69.9716 48.4112 69.9536 48.456C69.9355 48.5007 69.9084 48.5412 69.8739 48.575L69.1139 49.335C69.0801 49.3695 69.0396 49.3966 68.9949 49.4147C68.9501 49.4327 68.9021 49.4414 68.8539 49.44H68.0939C68.2462 49.606 68.3742 49.7929 68.4739 49.995L69.9439 53.16C69.9602 53.2105 69.9719 53.2624 69.9789 53.315C69.9789 53.4118 69.9404 53.5046 69.872 53.5731C69.8035 53.6415 69.7107 53.68 69.6139 53.68H67.9539C67.8854 53.6792 67.8185 53.6597 67.7603 53.6236C67.7021 53.5874 67.6549 53.536 67.6239 53.475L65.7489 49.435H64.5189V53.31C64.5203 53.3583 64.5118 53.4064 64.4939 53.4513C64.4761 53.4962 64.4492 53.537 64.4151 53.5712C64.3809 53.6053 64.3401 53.6322 64.2952 53.65C64.2503 53.6679 64.2022 53.6764 64.1539 53.675H62.4589C62.4106 53.6764 62.3625 53.6679 62.3176 53.65C62.2727 53.6322 62.2319 53.6053 62.1977 53.5712C62.1636 53.537 62.1367 53.4962 62.1189 53.4513C62.101 53.4064 62.0925 53.3583 62.0939 53.31V41.93C62.0925 41.8817 62.101 41.8336 62.1189 41.7887C62.1367 41.7438 62.1636 41.703 62.1977 41.6688C62.2319 41.6347 62.2727 41.6078 62.3176 41.59C62.3625 41.5721 62.4106 41.5636 62.4589 41.565L68.8539 41.57ZM64.8939 44C64.8456 43.9986 64.7975 44.0071 64.7526 44.025C64.7077 44.0428 64.6669 44.0697 64.6327 44.1038C64.5986 44.138 64.5717 44.1788 64.5539 44.2237C64.536 44.2686 64.5275 44.3167 64.5289 44.365V46.63C64.5275 46.6782 64.5362 46.7262 64.5542 46.771C64.5723 46.8157 64.5994 46.8562 64.6339 46.89L64.6689 46.925C64.7027 46.9595 64.7432 46.9866 64.7879 47.0047C64.8327 47.0227 64.8807 47.0314 64.9289 47.03H67.1589C67.2071 47.0314 67.2551 47.0227 67.2999 47.0047C67.3446 46.9866 67.3851 46.9595 67.4189 46.925L67.4539 46.89C67.4884 46.8562 67.5155 46.8157 67.5336 46.771C67.5516 46.7262 67.5603 46.6782 67.5589 46.63V44.39C67.5603 44.3418 67.5516 44.2938 67.5336 44.249C67.5155 44.2043 67.4884 44.1638 67.4539 44.13L67.4189 44.095C67.3851 44.0605 67.3446 44.0334 67.2999 44.0153C67.2551 43.9973 67.2071 43.9886 67.1589 43.99L64.8939 44Z" fill="white"/>
<path d="M90.3819 41.57C90.4302 41.5686 90.4782 41.5771 90.5232 41.595C90.5681 41.6128 90.6089 41.6397 90.643 41.6738C90.6772 41.708 90.704 41.7488 90.7219 41.7937C90.7397 41.8386 90.7482 41.8867 90.7469 41.935V43.63C90.7482 43.6783 90.7397 43.7264 90.7219 43.7713C90.704 43.8162 90.6772 43.857 90.643 43.8912C90.6089 43.9253 90.5681 43.9522 90.5232 43.97C90.4782 43.9879 90.4302 43.9964 90.3819 43.995H87.7169V53.315C87.7182 53.3633 87.7097 53.4114 87.6919 53.4563C87.674 53.5012 87.6472 53.542 87.613 53.5762C87.5789 53.6103 87.5381 53.6372 87.4932 53.655C87.4482 53.6729 87.4002 53.6814 87.3519 53.68H85.6569C85.6086 53.6814 85.5605 53.6729 85.5156 53.655C85.4707 53.6372 85.4299 53.6103 85.3957 53.5762C85.3615 53.542 85.3347 53.5012 85.3168 53.4563C85.299 53.4114 85.2905 53.3633 85.2919 53.315V44H82.6269C82.5786 44.0014 82.5305 43.9929 82.4856 43.975C82.4407 43.9572 82.3999 43.9303 82.3657 43.8962C82.3315 43.862 82.3047 43.8212 82.2868 43.7763C82.269 43.7314 82.2605 43.6833 82.2619 43.635V41.93C82.2605 41.8817 82.269 41.8336 82.2868 41.7887C82.3047 41.7438 82.3315 41.703 82.3657 41.6688C82.3999 41.6347 82.4407 41.6078 82.4856 41.59C82.5305 41.5721 82.5786 41.5636 82.6269 41.565L90.3819 41.57Z" fill="white"/>
<path d="M111.161 41.57C111.209 41.5686 111.257 41.5771 111.302 41.595C111.347 41.6128 111.388 41.6397 111.422 41.6738C111.456 41.708 111.483 41.7488 111.501 41.7937C111.519 41.8386 111.527 41.8867 111.526 41.935V52.55C111.527 52.5982 111.518 52.6461 111.5 52.6908C111.482 52.7355 111.455 52.7761 111.421 52.81L110.661 53.57C110.627 53.6045 110.587 53.6316 110.542 53.6497C110.497 53.6677 110.449 53.6764 110.401 53.675H104.176C104.128 53.6764 104.08 53.6677 104.035 53.6497C103.99 53.6316 103.95 53.6045 103.916 53.57L103.156 52.81C103.122 52.7761 103.095 52.7355 103.077 52.6908C103.059 52.6461 103.05 52.5982 103.051 52.55V41.93C103.05 41.8817 103.058 41.8336 103.076 41.7887C103.094 41.7438 103.121 41.703 103.155 41.6688C103.189 41.6347 103.23 41.6078 103.275 41.59C103.32 41.5721 103.368 41.5636 103.416 41.565H105.111C105.159 41.5636 105.207 41.5721 105.252 41.59C105.297 41.6078 105.338 41.6347 105.372 41.6688C105.406 41.703 105.433 41.7438 105.451 41.7887C105.469 41.8336 105.477 41.8817 105.476 41.93V50.855C105.475 50.9032 105.483 50.9512 105.501 50.996C105.519 51.0407 105.546 51.0812 105.581 51.115L105.616 51.15C105.65 51.1842 105.69 51.2112 105.735 51.2293C105.78 51.2473 105.828 51.2561 105.876 51.255H108.711C108.759 51.2561 108.807 51.2473 108.852 51.2293C108.896 51.2112 108.937 51.1842 108.971 51.15L109.006 51.115C109.04 51.0812 109.068 51.0407 109.086 50.996C109.104 50.9512 109.112 50.9032 109.111 50.855V41.93C109.11 41.8817 109.118 41.8336 109.136 41.7887C109.154 41.7438 109.181 41.703 109.215 41.6688C109.249 41.6347 109.29 41.6078 109.335 41.59C109.38 41.5721 109.428 41.5636 109.476 41.565L111.161 41.57Z" fill="white"/>
<path d="M130.581 41.57C130.629 41.5686 130.677 41.5773 130.722 41.5953C130.767 41.6134 130.807 41.6405 130.841 41.675L131.601 42.435C131.636 42.4688 131.663 42.5093 131.681 42.554C131.699 42.5988 131.707 42.6468 131.706 42.695V48.315C131.707 48.3632 131.699 48.4112 131.681 48.456C131.663 48.5007 131.636 48.5412 131.601 48.575L130.841 49.335C130.807 49.3695 130.767 49.3966 130.722 49.4147C130.677 49.4327 130.629 49.4414 130.581 49.44H126.251V53.315C126.252 53.3633 126.244 53.4114 126.226 53.4563C126.208 53.5012 126.181 53.542 126.147 53.5762C126.113 53.6103 126.072 53.6372 126.027 53.655C125.982 53.6729 125.934 53.6814 125.886 53.68H124.201C124.153 53.6814 124.105 53.6729 124.06 53.655C124.015 53.6372 123.974 53.6103 123.94 53.5762C123.906 53.542 123.879 53.5012 123.861 53.4563C123.843 53.4114 123.835 53.3633 123.836 53.315V41.93C123.835 41.8817 123.843 41.8336 123.861 41.7887C123.879 41.7438 123.906 41.703 123.94 41.6688C123.974 41.6347 124.015 41.6078 124.06 41.59C124.105 41.5721 124.153 41.5636 124.201 41.565L130.581 41.57ZM126.621 44C126.573 43.9986 126.525 44.0071 126.48 44.025C126.435 44.0428 126.394 44.0697 126.36 44.1038C126.326 44.138 126.299 44.1788 126.281 44.2237C126.263 44.2686 126.255 44.3167 126.256 44.365V46.63C126.255 46.6782 126.263 46.7262 126.281 46.771C126.299 46.8157 126.327 46.8562 126.361 46.89L126.396 46.925C126.43 46.9595 126.47 46.9866 126.515 47.0047C126.56 47.0227 126.608 47.0314 126.656 47.03H128.886C128.934 47.0314 128.982 47.0227 129.027 47.0047C129.072 46.9866 129.112 46.9595 129.146 46.925L129.181 46.89C129.216 46.8562 129.243 46.8157 129.261 46.771C129.279 46.7262 129.287 46.6782 129.286 46.63V44.39C129.287 44.3418 129.279 44.2938 129.261 44.249C129.243 44.2043 129.216 44.1638 129.181 44.13L129.146 44.095C129.112 44.0605 129.072 44.0334 129.027 44.0153C128.982 43.9973 128.934 43.9886 128.886 43.99L126.621 44Z" fill="white"/>
<path d="M150.134 41.57C150.182 41.5686 150.23 41.5773 150.275 41.5953C150.32 41.6134 150.36 41.6405 150.394 41.675L151.154 42.435C151.189 42.4688 151.216 42.5093 151.234 42.554C151.252 42.5988 151.26 42.6468 151.259 42.695V44.41C151.26 44.4583 151.252 44.5064 151.234 44.5513C151.216 44.5962 151.189 44.637 151.155 44.6712C151.121 44.7053 151.08 44.7322 151.035 44.75C150.99 44.7679 150.942 44.7764 150.894 44.775H149.199C149.151 44.7764 149.103 44.7679 149.058 44.75C149.013 44.7322 148.972 44.7053 148.938 44.6712C148.904 44.637 148.877 44.5962 148.859 44.5513C148.841 44.5064 148.833 44.4583 148.834 44.41V44.41C148.835 44.3618 148.827 44.3138 148.809 44.269C148.791 44.2243 148.764 44.1838 148.729 44.15L148.694 44.115C148.66 44.0805 148.62 44.0534 148.575 44.0353C148.53 44.0173 148.482 44.0086 148.434 44.01H146.809C146.761 44.0086 146.713 44.0173 146.668 44.0353C146.623 44.0534 146.583 44.0805 146.549 44.115L146.514 44.15C146.48 44.1838 146.452 44.2243 146.434 44.269C146.416 44.3138 146.408 44.3618 146.409 44.41V46C146.408 46.0482 146.416 46.0962 146.434 46.141C146.452 46.1857 146.48 46.2262 146.514 46.26L146.549 46.295C146.583 46.3295 146.623 46.3566 146.668 46.3747C146.713 46.3927 146.761 46.4014 146.809 46.4H150.129C150.177 46.3989 150.225 46.4077 150.27 46.4257C150.315 46.4438 150.355 46.4708 150.389 46.505L151.149 47.265C151.184 47.2988 151.211 47.3393 151.229 47.384C151.247 47.4288 151.255 47.4768 151.254 47.525V52.525C151.255 52.5732 151.246 52.6211 151.228 52.6658C151.21 52.7105 151.183 52.7511 151.149 52.785L150.389 53.545C150.355 53.5795 150.315 53.6066 150.27 53.6247C150.225 53.6427 150.177 53.6514 150.129 53.65H145.129C145.081 53.6514 145.033 53.6427 144.988 53.6247C144.943 53.6066 144.903 53.5795 144.869 53.545L144.109 52.785C144.075 52.7511 144.048 52.7105 144.03 52.6658C144.012 52.6211 144.003 52.5732 144.004 52.525V50.595C144.003 50.5467 144.011 50.4986 144.029 50.4537C144.047 50.4088 144.074 50.368 144.108 50.3338C144.142 50.2997 144.183 50.2728 144.228 50.255C144.273 50.2371 144.321 50.2286 144.369 50.23H146.064C146.112 50.2286 146.16 50.2371 146.205 50.255C146.25 50.2728 146.291 50.2997 146.325 50.3338C146.359 50.368 146.386 50.4088 146.404 50.4537C146.422 50.4986 146.43 50.5467 146.429 50.595V50.83C146.428 50.8782 146.436 50.9262 146.454 50.971C146.472 51.0157 146.5 51.0562 146.534 51.09L146.569 51.125C146.603 51.1592 146.644 51.1862 146.688 51.2043C146.733 51.2223 146.781 51.2311 146.829 51.23H148.454C148.502 51.2311 148.55 51.2223 148.595 51.2043C148.64 51.1862 148.68 51.1592 148.714 51.125L148.749 51.09C148.784 51.0562 148.811 51.0157 148.829 50.971C148.847 50.9262 148.855 50.8782 148.854 50.83V49.23C148.855 49.1818 148.847 49.1338 148.829 49.089C148.811 49.0443 148.784 49.0038 148.749 48.97L148.714 48.935C148.68 48.9005 148.64 48.8734 148.595 48.8553C148.55 48.8373 148.502 48.8286 148.454 48.83H145.134C145.086 48.8314 145.038 48.8227 144.993 48.8047C144.948 48.7866 144.908 48.7595 144.874 48.725L144.114 47.965C144.08 47.9312 144.052 47.8907 144.034 47.846C144.016 47.8012 144.008 47.7532 144.009 47.705V42.705C144.008 42.6568 144.016 42.6088 144.034 42.564C144.052 42.5193 144.08 42.4788 144.114 42.445L144.874 41.685C144.908 41.6505 144.948 41.6234 144.993 41.6053C145.038 41.5873 145.086 41.5786 145.134 41.58L150.134 41.57Z" fill="white"/>
</g>
</g>
<defs>
<clipPath id="clip0_1_11">
<rect width="1440" height="7687" fill="white" transform="translate(-871 -4085)"/>
</clipPath>
</defs>
</svg>
